<svg width="437" height="112" viewBox="0 0 437 112" fill="none" xmlns="http://www.w3.org/2000/svg">
<g clip-path="url(#clip0_1_2)">
<path d="M437 0H0V112H437V0Z" fill="white"/>
<path d="M437 0H0V112H437V0Z" fill="white"/>
<path d="M54.1172 86.5469L74.8099 37.4375H67.0859L54.0182 71L39.9609 35.1562L25.8984 71L12.8307 37.4375H5.10675L25.9974 86.5469L39.9609 51.3958L54.1172 86.5469Z" fill="#0D6EFD"/>
<path d="M125.793 58.2292C125.793 52.2864 123.418 47.1406 118.861 42.6823C114.408 38.4271 109.059 36.25 103.022 36.25C96.6838 36.25 91.34 38.526 86.8817 42.9792C82.4286 47.4375 80.2463 52.7812 80.2463 59.0208C80.2463 65.3542 82.4286 70.7031 86.8817 75.0573C88.9598 77.1406 91.34 78.7239 94.1109 79.9114C96.8817 81.0989 100.147 81.6927 104.012 81.6927C107.871 81.6927 111.637 80.5052 115.397 78.1302C119.158 75.75 121.934 72.3854 123.814 68.2292H115.892C114.309 70.3073 112.429 71.8906 110.147 73.0781C107.871 74.2656 105.496 74.7604 103.022 74.7604C99.2567 74.7604 95.8921 73.5729 92.9234 71.0989C89.9494 68.7239 88.0692 65.651 87.4754 61.8906H125.793V58.2292ZM118.465 55.9479H87.5744C87.9702 54.1667 88.6629 52.4844 89.6525 50.901C92.8244 45.75 97.2775 43.1771 103.022 43.1771C106.684 43.1771 109.949 44.3646 112.824 46.7448C115.793 49.2187 117.574 52.2864 118.465 55.9479Z" fill="#0D6EFD"/>
<path d="M167.274 81H174.201V53.7708C174.201 48.7239 172.816 44.6614 170.243 41.5937C168.858 40.0104 167.274 38.8229 165.394 37.9323C163.41 37.0417 160.936 36.5469 157.868 36.5469C154.696 36.5469 152.024 37.4375 149.649 39.0208C147.373 40.5052 145.493 42.4844 144.102 44.9583V37.4375H137.175V81H144.102V62.7812C144.102 57.2396 145.097 52.8802 147.175 49.6146C148.363 47.8333 149.847 46.3489 151.727 45.1562C153.509 44.0677 155.988 43.4739 158.956 43.4739C161.925 43.4739 164.003 44.5625 165.295 46.5469C166.581 48.526 167.274 51 167.274 53.7708V81Z" fill="#0D6EFD"/>
<path d="M193.108 105.75L223.207 37.4375H215.488L203.009 66.6458L189.051 37.4375H181.129L199.347 73.8698L184.691 105.75H193.108Z" fill="#0D6EFD"/>
<path d="M245.492 6.74478C237.576 6.74478 231.435 11.6927 231.435 22.4844V37.3385H225.195V48.8229H231.435V81H246.284V48.8229H256.482V37.3385H246.284V24.2656C246.284 20.0104 247.076 18.3281 250.148 18.3281H256.482V6.74478H245.492Z" fill="#0D6EFD"/>
<path d="M286.58 70.7031C278.559 70.7031 276.382 64.8594 276.382 59.3177C276.382 53.8698 278.757 48.0312 286.58 48.0312C294.304 48.0312 296.679 53.8698 296.679 59.3177C296.679 64.8594 294.502 70.7031 286.58 70.7031ZM286.58 36.4479C272.914 36.4479 261.627 45.5521 261.627 59.2187C261.627 73.1771 272.617 81.8906 286.58 81.8906C300.44 81.8906 311.429 73.1771 311.429 59.2187C311.429 45.5521 300.143 36.4479 286.58 36.4479Z" fill="#0D6EFD"/>
<path d="M319.838 62.1875C319.838 73.9687 324.594 81.9896 336.276 81.9896C342.021 81.9896 346.672 79.4167 349.641 75.651V81H364.495V37.3385H349.641V59.2187C349.641 65.0573 345.979 70.1094 341.328 70.1094C336.672 70.1094 334.693 67.2396 334.693 62.1875V37.3385H319.838V62.1875Z" fill="#0D6EFD"/>
<path d="M401.023 48.3281C403.299 48.3281 405.482 49.0208 406.966 50.8021H407.164V37.3385C405.976 36.7448 403.992 36.3489 402.706 36.3489C397.263 36.3489 393.497 39.4166 391.221 42.6823V37.3385H376.372V81H391.221V59.2187C391.221 53.9687 395.482 48.3281 401.023 48.3281Z" fill="#0D6EFD"/>
<path d="M413.3 73.375C413.3 78.1302 417.159 81.9896 422.008 81.9896C426.763 81.9896 430.721 78.1302 430.721 73.375C430.721 68.526 426.763 64.6614 422.008 64.6614C417.159 64.6614 413.3 68.526 413.3 73.375Z" fill="#0D6EFD"/>
</g>
<defs>
<clipPath id="clip0_1_2">
<rect width="437" height="112" fill="white"/>
</clipPath>
</defs>
</svg>
